<svg width="24.147mm" height="24.147mm" version="1.1" viewBox="0 0 24.147 24.147" xmlns="http://www.w3.org/2000/svg">
 <g transform="translate(-54.431 -21.515)">
  <g transform="translate(-1.3393)" stroke-linecap="round" stroke-width="2.6458">
   <circle cx="67.844" cy="33.589" r="12.074" fill="#fff" style="paint-order:markers fill stroke"/>
   <path d="m68.679 30.762c-1.6953 0-2.9973 0.59906-3.9052 1.7978-0.90788 1.1871-1.3617 2.8979-1.3617 5.1325v1.7632l-1.973 0.6811v1.2046h1.973v3.4773a12.074 12.074 0 0 0 4.0163 0.82786v-4.3052h2.6541v-1.8154h-2.6541v-2.3921c0-2.9678 0.46318-4.4514 1.3896-4.4514 0.3613 0 0.65306 0.13977 0.8754 0.4191l0.40308 1.9027h0.88935v-3.9104c-0.62069-0.22113-1.3897-0.33176-2.3068-0.33176z" style="paint-order:markers fill stroke"/>
   <path d="m61.094 28.556c3.9962-0.60622 7.3222-2.049 7.9394-6.8731-0.07853 3.6384 1.2606 6.45 5.5614 7.5341" fill="none" stroke="#000"/>
  </g>
 </g>
</svg>
